<?xml version="1.0" encoding="iso-8859-1"?>
<!-- Generator: Adobe Illustrator 19.0.0, SVG Export Plug-In . SVG Version: 6.00 Build 0)  -->
<svg version="1.1" id="Layer_1" xmlns="http://www.w3.org/2000/svg" xmlns:xlink="http://www.w3.org/1999/xlink" x="0px" y="0px"
	 viewBox="0 0 512 512" style="enable-background:new 0 0 512 512;" xml:space="preserve">
<path style="fill:#6DABE4;" d="M481.332,311.119c-2.767-10.329-13.386-16.457-23.712-13.691l-62.256,16.682l-45.69-26.38v-63.453
	l45.69-26.379l62.257,16.682c1.679,0.449,3.364,0.665,5.023,0.665c8.549,0,16.372-5.706,18.69-14.356
	c2.769-10.329-3.361-20.946-13.691-23.714l-24.853-6.659l27.826-16.065c9.261-5.346,12.434-17.188,7.087-26.448
	c-5.347-9.261-17.188-12.435-26.448-7.087l-27.827,16.066l6.659-24.854c2.769-10.329-3.361-20.946-13.691-23.714
	c-10.332-2.765-20.946,3.363-23.712,13.691l-16.683,62.259l-45.692,26.381l-54.947-31.723v-52.766l45.575-45.575
	c7.562-7.561,7.562-19.821,0-27.382c-7.561-7.561-19.82-7.561-27.381,0l-18.194,18.194V19.362C275.362,8.669,266.693,0,256,0
	c-10.694,0-19.361,8.669-19.361,19.362v32.131l-18.194-18.194c-7.561-7.561-19.82-7.561-27.381,0
	c-7.562,7.561-7.562,19.821,0,27.382l45.575,45.575v52.769l-54.942,31.721l-45.698-26.383l-16.681-62.257
	c-2.767-10.329-13.386-16.458-23.712-13.691c-10.329,2.768-16.459,13.385-13.691,23.714l6.659,24.854l-27.826-16.065
	c-9.259-5.345-21.103-2.173-26.448,7.087c-5.347,9.261-2.174,21.102,7.087,26.448l27.826,16.065l-24.854,6.659
	C34.03,179.943,27.9,190.56,30.668,200.889c2.317,8.651,10.14,14.356,18.69,14.356c1.658,0,3.346-0.215,5.023-0.665l62.259-16.682
	l45.697,26.382v63.446L116.64,314.11l-62.257-16.682c-10.33-2.767-20.946,3.363-23.714,13.691
	c-2.768,10.329,3.361,20.946,13.691,23.714l24.853,6.659l-27.826,16.065c-9.261,5.346-12.434,17.188-7.087,26.448
	c3.586,6.212,10.094,9.684,16.786,9.684c3.285,0,6.613-0.837,9.662-2.597l27.827-16.065l-6.659,24.854
	c-2.768,10.329,3.361,20.946,13.691,23.714c1.679,0.449,3.364,0.665,5.023,0.665c8.549,0,16.372-5.706,18.69-14.356l16.682-62.257
	l45.697-26.383l54.942,31.721v52.76l-45.575,45.575c-7.562,7.561-7.562,19.821,0,27.382c3.781,3.781,8.736,5.67,13.69,5.67
	c4.955,0,9.91-1.89,13.691-5.67l18.194-18.194v32.131c0,10.694,8.669,19.362,19.361,19.362c10.694,0,19.362-8.669,19.362-19.362
	v-32.131l18.194,18.194c3.781,3.781,8.736,5.67,13.691,5.67s9.91-1.89,13.691-5.67c7.562-7.561,7.562-19.821,0-27.382
	l-45.575-45.575v-52.757l54.947-31.723l45.692,26.38l16.683,62.259c2.317,8.651,10.14,14.356,18.69,14.356
	c1.658,0,3.346-0.215,5.023-0.665c10.329-2.768,16.459-13.385,13.691-23.714l-6.66-24.855l27.827,16.066
	c3.049,1.761,6.378,2.597,9.662,2.597c6.691,0,13.2-3.473,16.786-9.684c5.347-9.261,2.174-21.102-7.087-26.448l-27.826-16.065
	l24.852-6.659C477.971,332.065,484.101,321.448,481.332,311.119z M310.949,287.726l-54.945,31.723l-54.946-31.723V224.28
	l54.946-31.723l54.945,31.723V287.726z"/>
<path style="opacity:0.1;enable-background:new    ;" d="M121.14,311.51l-4.504,2.6l-62.257-16.682
	c-10.33-2.767-20.946,3.363-23.714,13.691c-2.768,10.329,3.361,20.946,13.691,23.714l24.853,6.659l-27.826,16.065
	c-9.26,5.346-12.434,17.188-7.087,26.448c3.586,6.212,10.094,9.684,16.786,9.684c3.284,0,6.613-0.837,9.662-2.597l27.827-16.065
	l-6.659,24.854c-2.768,10.329,3.361,20.946,13.691,23.714c1.679,0.449,3.364,0.665,5.023,0.665c8.549,0,16.372-5.706,18.69-14.356
	l16.682-62.257l7.176-4.142C135.264,333.27,127.896,322.598,121.14,311.51z"/>
<path style="opacity:0.1;enable-background:new    ;" d="M30.667,200.889c2.317,8.651,10.14,14.356,18.69,14.356
	c1.658,0,3.344-0.215,5.023-0.665l24.67-6.61c-5.754-25.176-8.801-51.382-8.801-78.301c0-1.084,0.031-2.161,0.041-3.243l-9.543-5.51
	c-9.259-5.345-21.103-2.173-26.448,7.087c-5.347,9.261-2.174,21.102,7.087,26.448l27.826,16.065l-24.854,6.659
	C34.027,179.943,27.898,190.56,30.667,200.889z"/>
<path style="opacity:0.1;enable-background:new    ;" d="M223.338,419.045l-32.275,32.275c-7.562,7.561-7.562,19.821,0,27.382
	c3.781,3.781,8.736,5.67,13.691,5.67s9.91-1.89,13.69-5.67l18.194-18.194v32.131c0,10.694,8.669,19.362,19.362,19.362
	c10.694,0,19.362-8.669,19.362-19.362v-32.131l18.194,18.194c3.781,3.781,8.736,5.67,13.691,5.67c4.955,0,9.91-1.89,13.691-5.67
	c3.286-3.286,5.141-7.461,5.57-11.751C289.25,456.617,254.491,440.284,223.338,419.045z"/>
<g>
</g>
<g>
</g>
<g>
</g>
<g>
</g>
<g>
</g>
<g>
</g>
<g>
</g>
<g>
</g>
<g>
</g>
<g>
</g>
<g>
</g>
<g>
</g>
<g>
</g>
<g>
</g>
<g>
</g>
</svg>
